<svg width="100" height="100" viewBox="0 0 100 100" fill="none" xmlns="http://www.w3.org/2000/svg">
<rect width="100" height="100" fill="#0A376E"/>
<path d="M34.4432 41.306C34.7192 40.838 35.1092 40.466 35.6132 40.19C36.1172 39.914 36.7112 39.776 37.3952 39.776C38.1992 39.776 38.9252 39.986 39.5732 40.406C40.2332 40.826 40.7492 41.426 41.1212 42.206C41.5052 42.986 41.6972 43.898 41.6972 44.942C41.6972 45.986 41.5052 46.904 41.1212 47.696C40.7492 48.476 40.2332 49.076 39.5732 49.496C38.9252 49.916 38.1992 50.126 37.3952 50.126C36.7112 50.126 36.1172 49.988 35.6132 49.712C35.1212 49.436 34.7312 49.064 34.4432 48.596V54.824H30.9152V39.902H34.4432V41.306ZM38.1152 44.942C38.1152 44.282 37.9352 43.772 37.5752 43.412C37.2272 43.04 36.7952 42.854 36.2792 42.854C35.7632 42.854 35.3252 43.04 34.9652 43.412C34.6172 43.784 34.4432 44.294 34.4432 44.942C34.4432 45.602 34.6172 46.118 34.9652 46.49C35.3252 46.862 35.7632 47.048 36.2792 47.048C36.7952 47.048 37.2272 46.862 37.5752 46.49C37.9352 46.106 38.1152 45.59 38.1152 44.942ZM44.9316 38.966C44.3076 38.966 43.8036 38.798 43.4196 38.462C43.0476 38.114 42.8616 37.682 42.8616 37.166C42.8616 36.638 43.0476 36.2 43.4196 35.852C43.8036 35.504 44.3076 35.33 44.9316 35.33C45.5436 35.33 46.0356 35.504 46.4076 35.852C46.7916 36.2 46.9836 36.638 46.9836 37.166C46.9836 37.682 46.7916 38.114 46.4076 38.462C46.0356 38.798 45.5436 38.966 44.9316 38.966ZM46.6776 39.902V50H43.1496V39.902H46.6776ZM52.2147 36.68V50H48.6867V36.68H52.2147ZM56.0058 38.966C55.3818 38.966 54.8778 38.798 54.4938 38.462C54.1218 38.114 53.9358 37.682 53.9358 37.166C53.9358 36.638 54.1218 36.2 54.4938 35.852C54.8778 35.504 55.3818 35.33 56.0058 35.33C56.6178 35.33 57.1098 35.504 57.4818 35.852C57.8658 36.2 58.0578 36.638 58.0578 37.166C58.0578 37.682 57.8658 38.114 57.4818 38.462C57.1098 38.798 56.6178 38.966 56.0058 38.966ZM57.7518 39.902V50H54.2238V39.902H57.7518ZM66.4029 39.812C67.5549 39.812 68.4669 40.202 69.1389 40.982C69.8229 41.75 70.1649 42.794 70.1649 44.114V50H66.6369V44.582C66.6369 44.006 66.4869 43.556 66.1869 43.232C65.8869 42.896 65.4849 42.728 64.9809 42.728C64.4529 42.728 64.0389 42.896 63.7389 43.232C63.4389 43.556 63.2889 44.006 63.2889 44.582V50H59.7609V36.68H63.2889V41.342C63.6009 40.886 64.0209 40.52 64.5489 40.244C65.0889 39.956 65.7069 39.812 66.4029 39.812ZM38.2709 62.67L40.1609 55.902H43.9229L40.4489 66H36.0569L32.5829 55.902H36.3449L38.2709 62.67ZM48.8444 55.776C49.5284 55.776 50.1224 55.914 50.6264 56.19C51.1424 56.466 51.5384 56.838 51.8144 57.306V55.902H55.3424V65.892C55.3424 66.84 55.1624 67.692 54.8024 68.448C54.4424 69.216 53.8784 69.828 53.1104 70.284C52.3544 70.74 51.3944 70.968 50.2304 70.968C48.6704 70.968 47.4224 70.602 46.4864 69.87C45.5504 69.138 45.0164 68.142 44.8844 66.882H48.3584C48.4304 67.206 48.6104 67.458 48.8984 67.638C49.1864 67.818 49.5584 67.908 50.0144 67.908C51.2144 67.908 51.8144 67.236 51.8144 65.892V64.596C51.5384 65.064 51.1424 65.436 50.6264 65.712C50.1224 65.988 49.5284 66.126 48.8444 66.126C48.0404 66.126 47.3084 65.916 46.6484 65.496C46.0004 65.076 45.4844 64.476 45.1004 63.696C44.7284 62.904 44.5424 61.986 44.5424 60.942C44.5424 59.898 44.7284 58.986 45.1004 58.206C45.4844 57.426 46.0004 56.826 46.6484 56.406C47.3084 55.986 48.0404 55.776 48.8444 55.776ZM51.8144 60.942C51.8144 60.294 51.6344 59.784 51.2744 59.412C50.9264 59.04 50.4944 58.854 49.9784 58.854C49.4504 58.854 49.0124 59.04 48.6644 59.412C48.3164 59.772 48.1424 60.282 48.1424 60.942C48.1424 61.59 48.3164 62.106 48.6644 62.49C49.0124 62.862 49.4504 63.048 49.9784 63.048C50.4944 63.048 50.9264 62.862 51.2744 62.49C51.6344 62.118 51.8144 61.602 51.8144 60.942ZM56.7767 60.942C56.7767 59.898 56.9627 58.986 57.3347 58.206C57.7187 57.426 58.2347 56.826 58.8827 56.406C59.5427 55.986 60.2747 55.776 61.0787 55.776C61.7747 55.776 62.3747 55.914 62.8787 56.19C63.3827 56.466 63.7727 56.838 64.0487 57.306V55.902H67.5767V66H64.0487V64.596C63.7727 65.064 63.3767 65.436 62.8607 65.712C62.3567 65.988 61.7627 66.126 61.0787 66.126C60.2747 66.126 59.5427 65.916 58.8827 65.496C58.2347 65.076 57.7187 64.476 57.3347 63.696C56.9627 62.904 56.7767 61.986 56.7767 60.942ZM64.0487 60.942C64.0487 60.294 63.8687 59.784 63.5087 59.412C63.1607 59.04 62.7287 58.854 62.2127 58.854C61.6847 58.854 61.2467 59.04 60.8987 59.412C60.5507 59.772 60.3767 60.282 60.3767 60.942C60.3767 61.59 60.5507 62.106 60.8987 62.49C61.2467 62.862 61.6847 63.048 62.2127 63.048C62.7287 63.048 63.1607 62.862 63.5087 62.49C63.8687 62.118 64.0487 61.602 64.0487 60.942Z" fill="white"/>
</svg>
