<svg width="25" height="25" viewBox="0 0 25 25" fill="none" xmlns="http://www.w3.org/2000/svg">
<path d="M8.5 12.5H4.5C3.94772 12.5 3.5 12.9477 3.5 13.5V19.5C3.5 20.0523 3.94772 20.5 4.5 20.5H8.5C9.05228 20.5 9.5 20.0523 9.5 19.5V13.5C9.5 12.9477 9.05228 12.5 8.5 12.5Z" stroke="#0C4284" stroke-width="1.5" stroke-linecap="round" stroke-linejoin="round"/>
<path d="M14.5 8.5H10.5C9.94772 8.5 9.5 8.94772 9.5 9.5V19.5C9.5 20.0523 9.94772 20.5 10.5 20.5H14.5C15.0523 20.5 15.5 20.0523 15.5 19.5V9.5C15.5 8.94772 15.0523 8.5 14.5 8.5Z" stroke="#0C4284" stroke-width="1.5" stroke-linecap="round" stroke-linejoin="round"/>
<path d="M20.5 4.5H16.5C15.9477 4.5 15.5 4.94772 15.5 5.5V19.5C15.5 20.0523 15.9477 20.5 16.5 20.5H20.5C21.0523 20.5 21.5 20.0523 21.5 19.5V5.5C21.5 4.94772 21.0523 4.5 20.5 4.5Z" stroke="#0C4284" stroke-width="1.5" stroke-linecap="round" stroke-linejoin="round"/>
<path d="M4.5 20.5H18.5" stroke="#0C4284" stroke-width="1.5" stroke-linecap="round" stroke-linejoin="round"/>
</svg>
